<?xml version="1.0" standalone="no"?>
<!DOCTYPE svg PUBLIC "-//W3C//DTD SVG 20010904//EN"
 "http://www.w3.org/TR/2001/REC-SVG-20010904/DTD/svg10.dtd">
<svg version="1.0" xmlns="http://www.w3.org/2000/svg"
 width="988.000000pt" height="988.000000pt" viewBox="0 0 988.000000 988.000000"
 preserveAspectRatio="xMidYMid meet">
<metadata>
Created by potrace 1.14, written by Peter Selinger 2001-2017
</metadata>
<g transform="translate(0.000000,988.000000) scale(0.100000,-0.100000)"
fill="#000000" stroke="none">
<path d="M4073 8394 c-3 -8 -8 -14 -13 -14 -4 0 -54 -46 -112 -102 -107 -104
-429 -415 -613 -592 -55 -53 -103 -96 -107 -96 -5 0 -8 -7 -8 -15 0 -8 -3 -15
-7 -15 -8 0 -54 -44 -422 -399 -117 -113 -246 -237 -286 -276 -40 -38 -172
-167 -295 -285 -123 -118 -253 -244 -290 -280 -37 -36 -161 -156 -276 -267
-115 -111 -259 -250 -321 -310 -62 -59 -190 -183 -285 -275 -95 -92 -219 -211
-274 -265 -56 -54 -184 -178 -285 -275 -101 -98 -242 -234 -313 -302 l-130
-125 122 2 c67 1 122 0 122 -3 0 -3 180 -3 400 0 220 3 400 2 400 -1 0 -4 18
-3 40 1 22 4 40 4 40 0 0 -5 8 -6 18 -4 27 7 862 10 862 3 0 -4 18 -3 40 1 22
4 40 4 40 0 0 -5 8 -6 18 -4 27 7 862 10 862 3 0 -4 18 -3 40 1 22 4 40 4 40
0 0 -5 8 -6 18 -4 32 8 862 9 862 1 0 -5 5 -5 11 -1 6 3 49 6 94 6 l83 -1 134
129 c73 70 174 167 223 215 50 47 182 175 295 284 113 109 241 233 285 276 44
42 178 172 299 288 120 117 247 239 281 272 34 33 154 149 266 257 112 108
249 240 304 293 110 106 449 434 580 560 46 44 183 177 306 295 122 118 248
240 279 270 31 30 158 152 281 271 123 119 289 280 369 357 l145 140 -2058 0
c-1769 0 -2059 -2 -2064 -14z"/>
<path d="M5613 5276 c-74 -72 -187 -182 -251 -243 -63 -62 -116 -113 -116
-113 -1 0 -52 -48 -112 -107 -122 -119 -305 -296 -619 -598 -114 -110 -249
-240 -300 -290 -51 -49 -182 -175 -290 -280 -109 -104 -232 -224 -275 -265
-42 -41 -175 -169 -295 -285 -119 -115 -266 -257 -326 -315 -99 -96 -346 -334
-561 -541 -526 -507 -764 -739 -758 -739 40 -5 4092 0 4099 5 6 3 11 3 11 -2
0 -4 9 6 20 22 11 17 20 27 20 23 0 -3 46 38 101 93 56 54 102 99 103 99 1 0
59 55 128 123 69 67 217 210 328 317 111 107 247 238 300 290 54 52 154 148
222 214 109 105 346 334 623 601 269 260 544 526 590 570 65 62 474 457 604
583 53 52 176 170 273 264 98 94 218 209 267 257 48 47 170 165 270 261 99 96
181 177 181 180 0 4 -923 6 -2050 6 l-2050 0 -137 -130z"/>
</g>
</svg>
