<svg width="158" height="36" viewBox="0 0 158 36" fill="none" xmlns="http://www.w3.org/2000/svg">
<path d="M0.72 32L8.64 6.08H15.948L23.868 32H18.828L11.772 9.14H12.708L5.76 32H0.72ZM5.472 26.6V22.028H19.152V26.6H5.472ZM27.0942 32V6.08H35.4822C35.6862 6.08 36.1062 6.086 36.7422 6.098C37.3782 6.11 37.9902 6.152 38.5782 6.224C40.6662 6.476 42.4362 7.202 43.8882 8.402C45.3402 9.602 46.4442 11.126 47.2002 12.974C47.9562 14.822 48.3342 16.844 48.3342 19.04C48.3342 21.236 47.9562 23.258 47.2002 25.106C46.4442 26.954 45.3402 28.478 43.8882 29.678C42.4362 30.878 40.6662 31.604 38.5782 31.856C37.9902 31.928 37.3782 31.97 36.7422 31.982C36.1062 31.994 35.6862 32 35.4822 32H27.0942ZM32.0622 27.392H35.4822C35.8062 27.392 36.2442 27.386 36.7962 27.374C37.3482 27.35 37.8462 27.296 38.2902 27.212C39.4182 26.984 40.3362 26.456 41.0442 25.628C41.7642 24.8 42.2922 23.804 42.6282 22.64C42.9762 21.476 43.1502 20.276 43.1502 19.04C43.1502 17.744 42.9702 16.514 42.6102 15.35C42.2622 14.186 41.7282 13.202 41.0082 12.398C40.2882 11.594 39.3822 11.084 38.2902 10.868C37.8462 10.772 37.3482 10.718 36.7962 10.706C36.2442 10.694 35.8062 10.688 35.4822 10.688H32.0622V27.392ZM53.0128 32V6.08H57.9088V32H53.0128ZM74.4292 32.54C71.8372 32.54 69.5992 31.976 67.7152 30.848C65.8432 29.72 64.3972 28.142 63.3772 26.114C62.3692 24.086 61.8652 21.728 61.8652 19.04C61.8652 16.352 62.3692 13.994 63.3772 11.966C64.3972 9.938 65.8432 8.36 67.7152 7.232C69.5992 6.104 71.8372 5.54 74.4292 5.54C77.4052 5.54 79.9012 6.278 81.9172 7.754C83.9452 9.23 85.3732 11.228 86.2012 13.748L81.2692 15.116C80.7892 13.544 79.9792 12.326 78.8392 11.462C77.6992 10.586 76.2292 10.148 74.4292 10.148C72.7852 10.148 71.4112 10.514 70.3072 11.246C69.2152 11.978 68.3932 13.01 67.8412 14.342C67.2892 15.674 67.0132 17.24 67.0132 19.04C67.0132 20.84 67.2892 22.406 67.8412 23.738C68.3932 25.07 69.2152 26.102 70.3072 26.834C71.4112 27.566 72.7852 27.932 74.4292 27.932C76.2292 27.932 77.6992 27.494 78.8392 26.618C79.9792 25.742 80.7892 24.524 81.2692 22.964L86.2012 24.332C85.3732 26.852 83.9452 28.85 81.9172 30.326C79.9012 31.802 77.4052 32.54 74.4292 32.54ZM100.713 32.54C98.6245 32.54 96.7885 32.12 95.2045 31.28C93.6205 30.428 92.3845 29.234 91.4965 27.698C90.6085 26.162 90.1645 24.356 90.1645 22.28V6.116L95.1325 6.08V22.244C95.1325 23.096 95.2765 23.87 95.5645 24.566C95.8525 25.262 96.2485 25.862 96.7525 26.366C97.2685 26.87 97.8625 27.26 98.5345 27.536C99.2185 27.8 99.9445 27.932 100.713 27.932C101.505 27.932 102.237 27.794 102.909 27.518C103.593 27.242 104.187 26.852 104.691 26.348C105.195 25.844 105.585 25.244 105.861 24.548C106.149 23.852 106.293 23.084 106.293 22.244V6.08H111.261V22.28C111.261 24.356 110.817 26.162 109.929 27.698C109.041 29.234 107.805 30.428 106.221 31.28C104.637 32.12 102.801 32.54 100.713 32.54ZM116.286 32V6.08H126.654C128.502 6.08 129.996 6.452 131.136 7.196C132.276 7.928 133.11 8.852 133.638 9.968C134.166 11.084 134.43 12.212 134.43 13.352C134.43 14.804 134.1 16.01 133.44 16.97C132.792 17.93 131.898 18.572 130.758 18.896V17.996C132.378 18.332 133.59 19.082 134.394 20.246C135.21 21.41 135.618 22.712 135.618 24.152C135.618 25.7 135.33 27.062 134.754 28.238C134.19 29.414 133.326 30.338 132.162 31.01C130.998 31.67 129.534 32 127.77 32H116.286ZM121.254 27.392H127.266C127.926 27.392 128.514 27.254 129.03 26.978C129.546 26.69 129.948 26.294 130.236 25.79C130.536 25.274 130.686 24.668 130.686 23.972C130.686 23.36 130.56 22.814 130.308 22.334C130.056 21.854 129.672 21.476 129.156 21.2C128.652 20.912 128.022 20.768 127.266 20.768H121.254V27.392ZM121.254 16.196H126.582C127.134 16.196 127.626 16.1 128.058 15.908C128.49 15.716 128.832 15.422 129.084 15.026C129.336 14.618 129.462 14.096 129.462 13.46C129.462 12.668 129.216 12.002 128.724 11.462C128.232 10.922 127.518 10.652 126.582 10.652H121.254V16.196ZM139.208 32V6.08H156.128V10.652H144.104V16.196H153.968V20.768H144.104V27.428H156.128V32H139.208Z" fill="white"/>
</svg>
