<svg width="73" height="72" viewBox="0 0 73 72" fill="none" xmlns="http://www.w3.org/2000/svg">
<circle cx="36.3334" cy="36" r="36" fill="#466AEA"/>
<path d="M43.8916 34.4694C44.2937 34.4688 44.6797 34.3117 44.9679 34.0313L51.8502 27.3867C52.9841 26.2086 53.6175 24.6371 53.6175 23.002C53.6175 21.3669 52.9841 19.7954 51.8502 18.6173C51.348 18.1047 50.7484 17.6976 50.0867 17.4199C49.4249 17.1422 48.7143 16.9996 47.9967 17.0004C46.5065 17.0118 45.0624 17.5183 43.8916 18.4402C42.6242 17.3592 41.394 16.8 40.2477 16.8C39.4437 16.7983 38.6476 16.9587 37.907 17.2718C37.1664 17.5848 36.4966 18.044 35.9376 18.6219C34.7971 19.8004 34.1595 21.3761 34.1595 23.016C34.1595 24.6559 34.7971 26.2316 35.9376 27.41L42.8152 34.0313C43.1034 34.3117 43.4895 34.4688 43.8916 34.4694ZM37.2702 19.922C37.6566 19.523 38.1193 19.2059 38.6309 18.9898C39.1425 18.7736 39.6924 18.6628 40.2477 18.6639C41.0632 18.6639 42.0883 19.2417 43.2113 20.332C43.3024 20.425 43.4111 20.4989 43.5311 20.5493C43.6512 20.5998 43.78 20.6257 43.9102 20.6257C44.0404 20.6257 44.1693 20.5998 44.2893 20.5493C44.4093 20.4989 44.5181 20.425 44.6092 20.332C45.5108 19.4235 46.7309 18.902 48.0107 18.8782C48.4815 18.8748 48.9483 18.9662 49.383 19.1471C49.8177 19.3281 50.2115 19.5948 50.5409 19.9313C51.3292 20.7602 51.7688 21.8604 51.7688 23.0043C51.7688 24.1483 51.3292 25.2484 50.5409 26.0774L43.8916 32.4843L37.2702 26.0867C36.4711 25.2596 36.0244 24.1544 36.0244 23.0043C36.0244 21.8542 36.4711 20.7491 37.2702 19.922V19.922Z" fill="white" stroke="white" stroke-width="0.5"/>
<path d="M54.8278 37.7124C54.2363 37.1075 53.4313 36.7584 52.5855 36.7402C51.7396 36.7219 50.9203 37.0358 50.3033 37.6146L43.3138 44.2266L36.5946 45.0001L35.5788 43.5649L40.4901 42.2229C40.8988 42.1419 41.2876 41.9811 41.6342 41.7497C41.9808 41.5184 42.2785 41.2211 42.5102 40.8747C42.7419 40.5283 42.9031 40.1397 42.9846 39.731C43.0662 39.3224 43.0664 38.9017 42.9853 38.4929C42.9042 38.0841 42.7434 37.6954 42.5121 37.3487C42.2808 37.0021 41.9834 36.7045 41.6371 36.4728C41.2907 36.2411 40.9021 36.0799 40.4934 35.9983C40.0847 35.9168 39.664 35.9166 39.2553 35.9977L28.6732 37.349C27.8964 37.4199 27.1614 37.7329 26.5718 38.2436L17.4575 46.1417C17.3603 46.2253 17.2814 46.3281 17.2258 46.4437C17.1701 46.5592 17.1389 46.685 17.1341 46.8131C17.1293 46.9413 17.151 47.0691 17.1978 47.1884C17.2446 47.3078 17.3156 47.4163 17.4063 47.507L24.8291 54.9251C25.003 55.1001 25.2393 55.199 25.4861 55.2C25.6097 55.1989 25.7319 55.1732 25.8455 55.1244C25.9591 55.0756 26.0618 55.0047 26.1477 54.9158L28.7897 52.1666L43.1833 52.1107C44.1538 52.1079 45.0849 51.7267 45.7788 51.0483L54.7672 42.2509C55.3723 41.6545 55.718 40.8436 55.7294 39.9941C55.7407 39.1445 55.4168 38.3247 54.8278 37.7124V37.7124ZM53.4625 40.9229L44.4834 49.711C44.137 50.0496 43.6724 50.2402 43.188 50.2422L28.3983 50.2981C28.2731 50.298 28.1492 50.3231 28.0339 50.3719C27.9186 50.4207 27.8144 50.4923 27.7273 50.5823L25.4721 52.9121L19.4146 46.8546L27.7926 39.6648C28.0944 39.3958 28.4754 39.2323 28.8783 39.1988L39.4929 37.8615C39.8221 37.8193 40.1549 37.9037 40.4243 38.0975C40.6936 38.2913 40.8793 38.5802 40.9438 38.9057C41.0083 39.2312 40.9468 39.5691 40.7718 39.851C40.5967 40.1329 40.3212 40.3378 40.0008 40.4243L33.8082 42.1158C33.6638 42.1551 33.531 42.2287 33.4211 42.3302C33.3111 42.4317 33.2273 42.5581 33.1765 42.6989C33.1258 42.8397 33.1097 42.9906 33.1296 43.1389C33.1495 43.2872 33.2049 43.4285 33.2909 43.5509L35.3924 46.5238C35.489 46.66 35.6204 46.7677 35.7729 46.8357C35.9253 46.9038 36.0933 46.9296 36.2591 46.9105L43.831 46.0392C44.0295 46.0125 44.2141 45.9227 44.3576 45.7829L51.5847 38.9659C51.8497 38.7578 52.1827 38.6559 52.5188 38.68C52.8549 38.7041 53.1699 38.8525 53.4026 39.0962C53.6352 39.3399 53.7688 39.6615 53.7773 39.9984C53.7858 40.3352 53.6686 40.6631 53.4485 40.9182L53.4625 40.9229Z" fill="white" stroke="white" stroke-width="0.5"/>
</svg>
