<svg width="72" height="72" viewBox="0 0 72 72" fill="none" xmlns="http://www.w3.org/2000/svg">
<circle cx="36" cy="36" r="36" fill="#466AEA"/>
<path d="M36.1284 16.8078C34.7654 16.7542 33.4058 16.9786 32.1309 17.4676C30.856 17.9566 29.6922 18.7 28.7091 19.6534C27.726 20.6068 26.9439 21.7505 26.4096 23.0159C25.8754 24.2814 25.6 25.6426 25.6 27.018C25.6 27.282 25.704 27.5353 25.8892 27.722C26.0743 27.9087 26.3255 28.0136 26.5874 28.0136C26.8492 28.0136 27.1004 27.9087 27.2855 27.722C27.4707 27.5353 27.5747 27.282 27.5747 27.018C27.5748 25.9106 27.7966 24.8146 28.2268 23.7957C28.657 22.7768 29.2867 21.8559 30.0784 21.0883C30.87 20.3207 31.8071 19.7222 32.8336 19.3285C33.8602 18.9349 34.9549 18.7543 36.0523 18.7975C37.9081 18.8711 39.6835 19.5808 41.0852 20.8094C42.4869 22.038 43.4311 23.7119 43.7617 25.5548C44.0923 27.3976 43.7896 29.299 42.9037 30.9449C42.0177 32.5908 40.6014 33.8827 38.8888 34.6072C37.6663 35.1158 36.6205 35.978 35.8832 37.0851C35.146 38.1922 34.7503 39.4945 34.746 40.828V44.6044C34.746 44.8684 34.8501 45.1217 35.0352 45.3084C35.2204 45.4951 35.4715 45.6 35.7334 45.6C35.9953 45.6 36.2464 45.4951 36.4316 45.3084C36.6168 45.1217 36.7208 44.8684 36.7208 44.6044V40.828C36.7256 39.8869 37.0067 38.9682 37.5286 38.1879C38.0505 37.4075 38.7898 36.8004 39.6533 36.4431C41.7803 35.5431 43.5393 33.9384 44.6395 31.894C45.7397 29.8497 46.1154 27.488 45.7046 25.1992C45.2937 22.9105 44.1208 20.8315 42.3797 19.3058C40.6385 17.78 38.4333 16.8988 36.1284 16.8078V16.8078Z" fill="white" stroke="white" stroke-width="0.5"/>
<path d="M35.7336 47.7333C34.9952 47.7333 34.2734 47.9522 33.6594 48.3624C33.0454 48.7726 32.5669 49.3556 32.2843 50.0378C32.0017 50.72 31.9277 51.4706 32.0717 52.1948C32.2157 52.9191 32.5713 53.5843 33.0934 54.1064C33.6155 54.6286 34.2807 54.9842 35.0049 55.1282C35.7291 55.2723 36.4798 55.1984 37.162 54.9158C37.8442 54.6333 38.4272 54.1548 38.8375 53.5408C39.2477 52.9269 39.4667 52.205 39.4667 51.4667C39.4656 50.4769 39.0719 49.528 38.3721 48.8281C37.6722 48.1282 36.7233 47.7345 35.7336 47.7333V47.7333ZM35.7336 53.252C35.3804 53.2521 35.0351 53.1474 34.7415 52.9512C34.4478 52.755 34.2189 52.4761 34.0837 52.1498C33.9485 51.8236 33.9132 51.4645 33.982 51.1181C34.0509 50.7717 34.221 50.4535 34.4707 50.2038C34.7205 49.9541 35.0386 49.784 35.385 49.7151C35.7314 49.6462 36.0905 49.6816 36.4168 49.8168C36.743 49.952 37.0219 50.1809 37.2181 50.4745C37.4143 50.7682 37.519 51.1135 37.5189 51.4667C37.5183 51.94 37.3301 52.3938 36.9954 52.7284C36.6607 53.0631 36.2069 53.2514 35.7336 53.252V53.252Z" fill="white" stroke="white" stroke-width="0.5"/>
</svg>
