<svg width="73" height="72" viewBox="0 0 73 72" fill="none" xmlns="http://www.w3.org/2000/svg">
<circle cx="36.6667" cy="36" r="36" fill="#466AEA"/>
<path d="M49.4831 25.3333H44.7685C44.3576 23.7798 43.6314 22.3275 42.6352 21.0667H49.4831C50.0489 21.0667 50.5915 20.8419 50.9916 20.4418C51.3917 20.0417 51.6165 19.4991 51.6165 18.9333C51.6165 18.3675 51.3917 17.8249 50.9916 17.4248C50.5915 17.0248 50.0489 16.8 49.4831 16.8H26.0165C25.4507 16.8 24.9081 17.0248 24.508 17.4248C24.108 17.8249 23.8832 18.3675 23.8832 18.9333C23.8832 19.4991 24.108 20.0417 24.508 20.4418C24.9081 20.8419 25.4507 21.0667 26.0165 21.0667H33.4832C34.8917 21.0716 36.2701 21.4748 37.4591 22.2298C38.6482 22.9848 39.5995 24.0607 40.2032 25.3333H26.0165C25.4507 25.3333 24.9081 25.5581 24.508 25.9581C24.108 26.3582 23.8832 26.9008 23.8832 27.4666C23.8832 28.0324 24.108 28.5751 24.508 28.9751C24.9081 29.3752 25.4507 29.6 26.0165 29.6H40.9498C40.6941 31.3719 39.8102 32.993 38.4592 34.1677C37.1082 35.3425 35.3801 35.9927 33.5898 35.9999H26.0165C25.9172 35.99 25.8172 35.99 25.7179 35.9999C25.5765 35.9779 25.4326 35.9779 25.2912 35.9999C25.1458 36.0495 25.009 36.1215 24.8859 36.2133L24.6299 36.3626C24.513 36.4681 24.4124 36.5904 24.3312 36.7253C24.2598 36.8198 24.1956 36.9197 24.1392 37.0239C24.1202 37.1512 24.1202 37.2806 24.1392 37.4079C23.9872 37.6207 23.8984 37.8722 23.8832 38.1333C23.8732 38.2326 23.8732 38.3326 23.8832 38.4319C23.8612 38.5733 23.8612 38.7172 23.8832 38.8586C23.9327 39.004 24.0047 39.1408 24.0965 39.2639C24.0965 39.2639 24.0965 39.4346 24.2459 39.5199L37.0458 54.4532C37.4136 54.8832 37.9371 55.1495 38.5012 55.1935C39.0653 55.2375 39.6238 55.0557 40.0538 54.6879C40.4838 54.3201 40.7501 53.7966 40.7941 53.2325C40.8381 52.6684 40.6563 52.1099 40.2885 51.6799L30.6672 40.2666H33.4832C36.4188 40.2788 39.2523 39.19 41.4244 37.2153C43.5966 35.2406 44.9496 32.5234 45.2165 29.6H49.4831C50.0489 29.6 50.5915 29.3752 50.9916 28.9751C51.3917 28.5751 51.6165 28.0324 51.6165 27.4666C51.6165 26.9008 51.3917 26.3582 50.9916 25.9581C50.5915 25.5581 50.0489 25.3333 49.4831 25.3333Z" fill="white" stroke="#466AEA" stroke-width="1.5"/>
</svg>
