<svg width="22" height="22" viewBox="0 0 22 22" fill="none" xmlns="http://www.w3.org/2000/svg">
<path d="M11.0004 0.818192C8.23528 0.818192 7.88826 0.830283 6.80224 0.879707C5.71833 0.929343 4.97847 1.10095 4.3311 1.35274C3.66145 1.6128 3.09341 1.96068 2.52749 2.52683C1.96114 3.09277 1.61327 3.66083 1.35237 4.33028C1.09995 4.97789 0.928142 5.71798 0.879355 6.80149C0.830781 7.88756 0.818054 8.2348 0.818054 11C0.818054 13.7652 0.830357 14.1112 0.879568 15.1973C0.929415 16.2812 1.10102 17.0211 1.35258 17.6685C1.61285 18.3381 1.96072 18.9062 2.52685 19.4721C3.09256 20.0385 3.6606 20.3872 4.32983 20.6473C4.97763 20.8991 5.71769 21.0707 6.80139 21.1203C7.88742 21.1697 8.23422 21.1818 10.9991 21.1818C13.7645 21.1818 14.1104 21.1697 15.1965 21.1203C16.2804 21.0707 17.0211 20.8991 17.6689 20.6473C18.3383 20.3872 18.9055 20.0385 19.4712 19.4721C20.0376 18.9062 20.3854 18.3381 20.6463 17.6687C20.8966 17.0211 21.0684 16.281 21.1193 15.1975C21.1681 14.1114 21.1809 13.7652 21.1809 11C21.1809 8.2348 21.1681 7.88777 21.1193 6.80171C21.0684 5.71777 20.8966 4.97789 20.6463 4.33049C20.3854 3.66083 20.0376 3.09277 19.4712 2.52683C18.9049 1.96046 18.3385 1.61259 17.6682 1.35274C17.0192 1.10095 16.2789 0.929343 15.195 0.879707C14.109 0.830283 13.7632 0.818192 10.9972 0.818192H11.0004ZM10.087 2.65304C10.3581 2.65262 10.6606 2.65304 11.0004 2.65304C13.7189 2.65304 14.0411 2.6628 15.1146 2.71159C16.1073 2.75698 16.6461 2.92286 17.005 3.06222C17.4801 3.24677 17.8188 3.46737 18.175 3.82374C18.5313 4.1801 18.7519 4.51949 18.9369 4.99465C19.0763 5.35313 19.2423 5.89192 19.2875 6.88465C19.3363 7.95798 19.3469 8.2804 19.3469 10.9977C19.3469 13.7149 19.3363 14.0374 19.2875 15.1107C19.2421 16.1034 19.0763 16.6422 18.9369 17.0007C18.7524 17.4759 18.5313 17.8142 18.175 18.1703C17.8186 18.5267 17.4803 18.7473 17.005 18.9319C16.6465 19.0719 16.1073 19.2373 15.1146 19.2827C14.0413 19.3315 13.7189 19.3421 11.0004 19.3421C8.28174 19.3421 7.95954 19.3315 6.88623 19.2827C5.89354 19.2369 5.35477 19.071 4.99566 18.9316C4.52052 18.7471 4.18113 18.5265 3.82478 18.1701C3.46843 17.8138 3.24783 17.4752 3.06287 16.9999C2.92351 16.6414 2.75742 16.1026 2.71224 15.1099C2.66345 14.0365 2.6537 13.7141 2.6537 10.9951C2.6537 8.27616 2.66345 7.95543 2.71224 6.8821C2.75763 5.88937 2.92351 5.35059 3.06287 4.99168C3.2474 4.51652 3.46843 4.17713 3.82478 3.82077C4.18113 3.4644 4.52052 3.2438 4.99566 3.05883C5.35455 2.91883 5.89354 2.75337 6.88623 2.70777C7.82548 2.66534 8.18947 2.65262 10.087 2.65049V2.65304ZM16.4352 4.34365C15.7607 4.34365 15.2134 4.89028 15.2134 5.56504C15.2134 6.23958 15.7607 6.78686 16.4352 6.78686C17.1097 6.78686 17.657 6.23958 17.657 5.56504C17.657 4.89049 17.1097 4.34322 16.4352 4.34322V4.34365ZM11.0004 5.77122C8.11289 5.77122 5.77178 8.1124 5.77178 11C5.77178 13.8876 8.11289 16.2277 11.0004 16.2277C13.8879 16.2277 16.2282 13.8876 16.2282 11C16.2282 8.1124 13.8877 5.77122 11.0002 5.77122H11.0004ZM11.0004 7.60607C12.8747 7.60607 14.3942 9.12549 14.3942 11C14.3942 12.8743 12.8747 14.3939 11.0004 14.3939C9.12595 14.3939 7.60658 12.8743 7.60658 11C7.60658 9.12549 9.12595 7.60607 11.0004 7.60607V7.60607Z" fill="url(#paint0_radial)"/>
<path d="M11.0004 0.818176C8.23528 0.818176 7.88826 0.830267 6.80224 0.879692C5.71833 0.929328 4.97847 1.10093 4.3311 1.35272C3.66145 1.61278 3.09341 1.96066 2.52749 2.52681C1.96114 3.09275 1.61327 3.66081 1.35237 4.33027C1.09995 4.97787 0.928142 5.71796 0.879355 6.80148C0.830781 7.88754 0.818054 8.23478 0.818054 11C0.818054 13.7652 0.830357 14.1112 0.879568 15.1972C0.929415 16.2812 1.10102 17.0211 1.35258 17.6684C1.61285 18.3381 1.96072 18.9062 2.52685 19.4721C3.09256 20.0385 3.6606 20.3872 4.32983 20.6473C4.97762 20.8991 5.71769 21.0707 6.80139 21.1203C7.88742 21.1697 8.23422 21.1818 10.9991 21.1818C13.7645 21.1818 14.1104 21.1697 15.1965 21.1203C16.2804 21.0707 17.0211 20.8991 17.6689 20.6473C18.3383 20.3872 18.9055 20.0385 19.4712 19.4721C20.0376 18.9062 20.3854 18.3381 20.6463 17.6687C20.8966 17.0211 21.0684 16.281 21.1193 15.1974C21.1681 14.1114 21.1809 13.7652 21.1809 11C21.1809 8.23478 21.1681 7.88775 21.1193 6.80169C21.0684 5.71775 20.8966 4.97787 20.6463 4.33048C20.3854 3.66081 20.0376 3.09275 19.4712 2.52681C18.9049 1.96045 18.3385 1.61257 17.6682 1.35272C17.0192 1.10093 16.2789 0.929328 15.195 0.879692C14.109 0.830267 13.7632 0.818176 10.9972 0.818176H11.0004ZM10.087 2.65302C10.3581 2.6526 10.6606 2.65302 11.0004 2.65302C13.7189 2.65302 14.0411 2.66278 15.1146 2.71157C16.1073 2.75696 16.6461 2.92284 17.005 3.06221C17.4801 3.24675 17.8188 3.46736 18.175 3.82372C18.5313 4.18008 18.7519 4.51948 18.9369 4.99463C19.0763 5.35311 19.2423 5.8919 19.2875 6.88463C19.3363 7.95796 19.3469 8.28039 19.3469 10.9977C19.3469 13.7149 19.3363 14.0374 19.2875 15.1107C19.2421 16.1034 19.0763 16.6422 18.9369 17.0007C18.7524 17.4758 18.5313 17.8142 18.175 18.1703C17.8186 18.5267 17.4803 18.7473 17.005 18.9318C16.6465 19.0718 16.1073 19.2373 15.1146 19.2827C14.0413 19.3315 13.7189 19.3421 11.0004 19.3421C8.28174 19.3421 7.95954 19.3315 6.88623 19.2827C5.89354 19.2369 5.35477 19.071 4.99565 18.9316C4.52052 18.7471 4.18113 18.5265 3.82478 18.1701C3.46843 17.8138 3.24783 17.4752 3.06286 16.9998C2.92351 16.6414 2.75742 16.1026 2.71224 15.1098C2.66345 14.0365 2.6537 13.7141 2.6537 10.9951C2.6537 8.27614 2.66345 7.95542 2.71224 6.88209C2.75763 5.88936 2.92351 5.35057 3.06286 4.99166C3.2474 4.51651 3.46843 4.17712 3.82478 3.82075C4.18113 3.46439 4.52052 3.24378 4.99565 3.05881C5.35455 2.91881 5.89354 2.75336 6.88623 2.70775C7.82548 2.66533 8.18947 2.6526 10.087 2.65048V2.65302ZM16.4352 4.34363C15.7607 4.34363 15.2134 4.89027 15.2134 5.56502C15.2134 6.23957 15.7607 6.78684 16.4352 6.78684C17.1097 6.78684 17.657 6.23957 17.657 5.56502C17.657 4.89048 17.1097 4.34321 16.4352 4.34321V4.34363ZM11.0004 5.77121C8.11289 5.77121 5.77178 8.11239 5.77178 11C5.77178 13.8876 8.11289 16.2277 11.0004 16.2277C13.8879 16.2277 16.2282 13.8876 16.2282 11C16.2282 8.11239 13.8877 5.77121 11.0002 5.77121H11.0004ZM11.0004 7.60605C12.8747 7.60605 14.3942 9.12548 14.3942 11C14.3942 12.8743 12.8747 14.3939 11.0004 14.3939C9.12595 14.3939 7.60658 12.8743 7.60658 11C7.60658 9.12548 9.12595 7.60605 11.0004 7.60605V7.60605Z" fill="url(#paint1_radial)"/>
<defs>
<radialGradient id="paint0_radial" cx="0" cy="0" r="1" gradientUnits="userSpaceOnUse" gradientTransform="translate(6.22695 22.7503) rotate(-90) scale(20.1819 18.77)">
<stop stop-color="#FFDD55"/>
<stop offset="0.1" stop-color="#FFDD55"/>
<stop offset="0.5" stop-color="#FF543E"/>
<stop offset="1" stop-color="#C837AB"/>
</radialGradient>
<radialGradient id="paint1_radial" cx="0" cy="0" r="1" gradientUnits="userSpaceOnUse" gradientTransform="translate(-2.59282 2.28514) rotate(78.6811) scale(9.02136 37.185)">
<stop stop-color="#3771C8"/>
<stop offset="0.128" stop-color="#3771C8"/>
<stop offset="1" stop-color="#6600FF" stop-opacity="0"/>
</radialGradient>
</defs>
</svg>
