<svg width="67" height="39" viewBox="0 0 67 39" fill="none" xmlns="http://www.w3.org/2000/svg"><path fill-rule="evenodd" clip-rule="evenodd" d="M6.58594 5.30566C3.27223 5.30566 0.585938 7.99196 0.585938 11.3057V26.5302C0.585938 29.8439 3.27223 32.5302 6.58594 32.5302H30.2004C30.1682 32.7391 30.2019 32.9624 30.3191 33.1704L32.9216 37.7899C33.3041 38.4688 34.2817 38.4688 34.6641 37.7899L37.2667 33.1704C37.3839 32.9624 37.4176 32.7391 37.3853 32.5302H61C64.3137 32.5302 67 29.8439 67 26.5302V11.3057C67 7.99196 64.3137 5.30566 61 5.30566H6.58594Z" fill="#0ACF83"/><path fill-rule="evenodd" clip-rule="evenodd" d="M13.6206 10.785C12.6551 10.785 11.7031 11.0572 10.8598 11.5734C8.24967 13.1733 7.33112 16.7451 8.84717 19.5326C9.13084 20.0546 9.63888 20.6815 10.2912 21.3607C10.9399 22.0361 11.7164 22.7481 12.5222 23.4401C14.1338 24.8239 15.8486 26.1156 16.8619 26.8575L16.8621 26.8577C17.1049 27.0359 17.3901 27.1291 17.6898 27.1291C17.9888 27.1291 18.2746 27.0362 18.5227 26.8569C19.536 26.115 21.2504 24.8235 22.8615 23.4401C23.6674 22.7481 24.4439 22.0361 25.0926 21.3607C25.7449 20.6815 26.2529 20.0547 26.5365 19.5327C28.0485 16.745 27.1298 13.1731 24.5196 11.5733C23.6763 11.0572 22.7244 10.785 21.759 10.785C20.3124 10.785 18.9509 11.3688 17.9272 12.4142L17.6898 12.6567L17.4523 12.4142C16.4287 11.3688 15.0671 10.785 13.6206 10.785ZM10.5116 11.0198C11.4562 10.4417 12.5283 10.1335 13.6206 10.1335C15.1419 10.1335 16.5757 10.7071 17.6898 11.7314C18.8038 10.7071 20.2377 10.1335 21.759 10.1335C22.8513 10.1335 23.9233 10.4417 24.8679 11.0198C27.7901 12.8108 28.7859 16.7666 27.1186 19.8403C26.793 20.4396 26.2366 21.1167 25.5719 21.8088C24.9035 22.5047 24.11 23.2317 23.2951 23.9315C21.665 25.3312 19.9347 26.6344 18.9154 27.3807L18.9139 27.3818C18.555 27.6415 18.1326 27.7806 17.6898 27.7806C17.2473 27.7806 16.8241 27.6417 16.468 27.3805C15.4488 26.6341 13.7187 25.3311 12.0887 23.9315C11.2737 23.2317 10.4803 22.5047 9.81188 21.8088C9.14716 21.1168 8.59096 20.4399 8.2653 19.8407M10.5116 11.0198C7.58948 12.8108 6.59356 16.7668 8.2653 19.8407ZM11.1823 12.0726C11.9242 11.619 12.7642 11.3771 13.6206 11.3771C15.1228 11.3771 16.5125 12.0941 17.4478 13.3229L17.4487 13.3241L17.6898 13.644L17.9308 13.3241L17.9318 13.3229C18.8671 12.0939 20.2612 11.3771 21.759 11.3771C22.615 11.3771 23.4553 11.6189 24.1936 12.0729C26.5651 13.5252 27.3597 16.7481 25.9968 19.2521C25.6914 19.8132 25.1346 20.4683 24.4705 21.1407C23.8014 21.8182 23.0038 22.5328 22.1978 23.214C20.5854 24.5766 18.9244 25.818 18.1567 26.3814L18.1551 26.3827C17.8785 26.5829 17.4968 26.5829 17.2203 26.3827L17.2191 26.3818C16.451 25.8202 14.79 24.5797 13.1776 23.2171C12.3715 22.5359 11.5739 21.821 10.9047 21.1429C10.2408 20.4701 9.68396 19.8143 9.37858 19.2521M11.5304 12.6262C9.47406 13.8894 8.75132 16.7227 9.96035 18.9439C10.22 19.4221 10.7228 20.0246 11.3779 20.6885C12.0279 21.3472 12.8092 22.048 13.6071 22.7223C15.2021 24.0701 16.8485 25.2999 17.6114 25.8578C17.6551 25.8892 17.7196 25.8893 17.7635 25.8581C18.5268 25.2978 20.1733 24.0671 21.7682 22.7192C22.5661 22.0448 23.3475 21.3443 23.9975 20.686C24.6527 20.0227 25.1553 19.4212 25.415 18.9439C26.6242 16.7224 25.9009 13.8851 23.8451 12.6263L23.8445 12.6259C23.2081 12.2345 22.4883 12.0286 21.759 12.0286C20.4824 12.0286 19.2791 12.638 18.4603 13.7135C18.4601 13.7137 18.46 13.7139 18.4598 13.7141L17.6898 14.736L16.9197 13.7141C16.9196 13.7139 16.9194 13.7136 16.9192 13.7134C16.1003 12.6379 14.9012 12.0286 13.6206 12.0286C12.8915 12.0286 12.1715 12.2343 11.5304 12.6262ZM11.1823 12.0726L11.1817 12.073ZM11.1817 12.073C8.81066 13.5292 8.01552 16.7478 9.37858 19.2521Z" fill="white"/><path d="M17.6898 27.4277C17.3196 27.4277 16.9662 27.312 16.6675 27.093C14.6397 25.6096 9.79333 21.9197 8.57752 19.6843C6.98729 16.763 7.94227 13.0111 10.702 11.3211C11.5939 10.7757 12.6036 10.4865 13.6301 10.4865C15.1656 10.4865 16.6086 11.1063 17.6898 12.2095C18.771 11.1063 20.214 10.4865 21.7495 10.4865C22.776 10.4865 23.7857 10.7757 24.6775 11.3211C27.4373 13.0111 28.3923 16.763 26.8063 19.6843C25.5905 21.9197 20.744 25.6096 18.7163 27.093C18.4134 27.312 18.06 27.4277 17.6898 27.4277ZM13.6301 11.7261C12.8392 11.7261 12.0609 11.9492 11.3709 12.3707C9.16229 13.726 15.126 10.0154 16.4091 12.3707C17.5366 14.4449 23.4938 12.6042 17.4163 26.0971C17.5762 26.2128 17.2565 17.0417 17.4163 16.926C18.9435 15.8062 19.0629 14.1743 20.1904 12.1042C21.4735 9.74892 26.2131 13.7218 24.0044 12.3707C23.3187 11.9492 15.4813 21.6042 14.6904 21.6042C13.3063 21.6042 19.0697 12.3872 18.1946 13.5359L17.4163 26.0971L17.185 13.5359C16.3099 12.3872 15.0184 11.7261 13.6301 11.7261Z" fill="white"/><path d="M37.8204 23.8141C38.4644 23.8141 39.0338 23.6858 39.5284 23.4291C40.0278 23.1725 40.4174 22.8131 40.6974 22.3511C40.9821 21.8845 41.1244 21.3431 41.1244 20.7271C41.1244 20.2045 41.0124 19.7238 40.7884 19.2851C40.5644 18.8465 40.2354 18.4871 39.8014 18.2071C40.1561 17.9598 40.4221 17.6518 40.5994 17.2831C40.7768 16.9145 40.8654 16.5108 40.8654 16.0721C40.8654 15.5028 40.7348 15.0128 40.4734 14.6021C40.2121 14.1915 39.8528 13.8741 39.3954 13.6501C38.9381 13.4261 38.4131 13.3141 37.8204 13.3141C37.2278 13.3141 36.7028 13.4261 36.2454 13.6501C35.7881 13.8741 35.4288 14.1915 35.1674 14.6021C34.9061 15.0128 34.7754 15.5028 34.7754 16.0721C34.7754 16.5061 34.8664 16.9098 35.0484 17.2831C35.2304 17.6518 35.4964 17.9575 35.8464 18.2001C35.4031 18.4848 35.0718 18.8465 34.8524 19.2851C34.6378 19.7191 34.5304 20.1998 34.5304 20.7271C34.5304 21.3431 34.6704 21.8821 34.9504 22.3441C35.2304 22.8061 35.6178 23.1678 36.1124 23.4291C36.6071 23.6858 37.1764 23.8141 37.8204 23.8141ZM37.8204 17.6261C37.3118 17.6261 36.8964 17.4978 36.5744 17.2411C36.2571 16.9798 36.0984 16.5901 36.0984 16.0721C36.0984 15.5541 36.2571 15.1668 36.5744 14.9101C36.8964 14.6488 37.3118 14.5181 37.8204 14.5181C38.3338 14.5181 38.7491 14.6488 39.0664 14.9101C39.3838 15.1668 39.5424 15.5541 39.5424 16.0721C39.5424 16.5901 39.3838 16.9798 39.0664 17.2411C38.7491 17.4978 38.3338 17.6261 37.8204 17.6261ZM37.8204 22.6241C37.2324 22.6241 36.7564 22.4631 36.3924 22.1411C36.0284 21.8145 35.8464 21.3431 35.8464 20.7271C35.8464 20.1065 36.0261 19.6351 36.3854 19.3131C36.7494 18.9865 37.2278 18.8231 37.8204 18.8231C38.4178 18.8231 38.8961 18.9865 39.2554 19.3131C39.6194 19.6351 39.8014 20.1065 39.8014 20.7271C39.8014 21.3431 39.6171 21.8145 39.2484 22.1411C38.8844 22.4631 38.4084 22.6241 37.8204 22.6241ZM46.2389 13.3211C45.6136 13.3211 45.0396 13.4728 44.5169 13.7761C43.9989 14.0748 43.5836 14.4808 43.2709 14.9941C42.9582 15.5028 42.8019 16.0698 42.8019 16.6951C42.8019 17.3205 42.9442 17.8851 43.2289 18.3891C43.5182 18.8885 43.9102 19.2851 44.4049 19.5791C44.9042 19.8731 45.4666 20.0201 46.0919 20.0201C46.5446 20.0201 46.9692 19.9268 47.3659 19.7401C47.7672 19.5535 48.1149 19.2991 48.4089 18.9771V20.3491C48.4089 20.7505 48.3109 21.1261 48.1149 21.4761C47.9236 21.8215 47.6552 22.1015 47.3099 22.3161C46.9646 22.5261 46.5702 22.6311 46.1269 22.6311C45.7536 22.6311 45.4059 22.5448 45.0839 22.3721C44.7619 22.1948 44.5006 21.9615 44.2999 21.6721L43.3689 22.4981C43.6956 22.9228 44.0969 23.2495 44.5729 23.4781C45.0536 23.7021 45.5716 23.8141 46.1269 23.8141C46.8176 23.8141 47.4289 23.6601 47.9609 23.3521C48.4929 23.0441 48.9106 22.6195 49.2139 22.0781C49.5219 21.5368 49.6759 20.9138 49.6759 20.2091V16.8561C49.6759 16.1841 49.5219 15.5821 49.2139 15.0501C48.9106 14.5135 48.4976 14.0911 47.9749 13.7831C47.4569 13.4751 46.8782 13.3211 46.2389 13.3211ZM46.2389 14.5251C46.6402 14.5251 47.0042 14.6231 47.3309 14.8191C47.6622 15.0151 47.9236 15.2788 48.1149 15.6101C48.3109 15.9368 48.4089 16.2985 48.4089 16.6951C48.4089 17.0965 48.3109 17.4628 48.1149 17.7941C47.9189 18.1208 47.6552 18.3821 47.3239 18.5781C46.9972 18.7741 46.6332 18.8721 46.2319 18.8721C45.8306 18.8721 45.4642 18.7741 45.1329 18.5781C44.8062 18.3821 44.5449 18.1208 44.3489 17.7941C44.1576 17.4628 44.0619 17.0965 44.0619 16.6951C44.0619 16.2938 44.1599 15.9298 44.3559 15.6031C44.5519 15.2718 44.8132 15.0105 45.1399 14.8191C45.4712 14.6231 45.8376 14.5251 46.2389 14.5251ZM51.6302 23.6041H52.8972V19.9641L56.3342 23.6041H58.0772L54.3462 19.8241L57.6852 16.0441H56.0682L52.8972 19.6841V13.5241H51.6372L51.6302 23.6041Z" fill="white"/></svg>