<svg width="67" height="38" viewBox="0 0 67 38" fill="none" xmlns="http://www.w3.org/2000/svg"><path fill-rule="evenodd" clip-rule="evenodd" d="M6 4.70154C2.68629 4.70154 0 7.38783 0 10.7015V25.9261C0 29.2398 2.6863 31.9261 6.00001 31.9261H29.6081C29.5759 32.1349 29.6096 32.3582 29.7267 32.5662L32.3285 37.1854C32.711 37.8644 33.6887 37.8644 34.0711 37.1854L36.673 32.5662C36.7901 32.3582 36.8238 32.1349 36.7915 31.9261H60.4C63.7137 31.9261 66.4 29.2398 66.4 25.9261V10.7015C66.4 7.38783 63.7137 4.70154 60.4 4.70154H6Z" fill="#FF5C5C"/><path fill-rule="evenodd" clip-rule="evenodd" d="M13.0348 10.1809C12.0693 10.1809 11.1173 10.4531 10.274 10.9693C7.66386 12.5692 6.7453 16.141 8.26135 18.9285C8.54503 19.4505 9.05306 20.0774 9.70539 20.7566C10.3541 21.432 11.1306 22.144 11.9364 22.8359C13.548 24.2197 15.2628 25.5115 16.276 26.2534L16.2763 26.2536C16.5191 26.4317 16.8043 26.525 17.104 26.525C17.403 26.525 17.6888 26.4321 17.9369 26.2528C18.9502 25.5108 20.6646 24.2194 22.2757 22.8359C23.0816 22.144 23.858 21.432 24.5067 20.7566C25.1591 20.0774 25.6671 19.4506 25.9507 18.9286C27.4627 16.1409 26.544 12.569 23.9338 10.9692C23.0905 10.4531 22.1386 10.1809 21.1732 10.1809C19.7266 10.1809 18.3651 10.7646 17.3414 11.8101L17.104 12.0526L16.8665 11.8101C15.8429 10.7646 14.4813 10.1809 13.0348 10.1809ZM9.92583 10.4157C10.8704 9.83755 11.9425 9.52942 13.0348 9.52942C14.556 9.52942 15.9899 10.103 17.104 11.1273C18.218 10.103 19.6519 9.52942 21.1732 9.52942C22.2655 9.52942 23.3375 9.83755 24.2821 10.4157C27.2043 12.2067 28.2001 16.1625 26.5328 19.2362C26.2072 19.8355 25.6508 20.5126 24.9861 21.2047C24.3177 21.9006 23.5242 22.6276 22.7092 23.3274C21.0791 24.7271 19.3489 26.0303 18.3296 26.7765L18.3281 26.7776C17.9691 27.0374 17.5468 27.1765 17.104 27.1765C16.6615 27.1765 16.2382 27.0376 15.8822 26.7763C14.8629 26.03 13.1328 24.727 11.5029 23.3274C10.6879 22.6276 9.89445 21.9006 9.22606 21.2047C8.56135 20.5126 8.00514 19.8358 7.67948 19.2365M9.92583 10.4157C7.00367 12.2067 6.00775 16.1627 7.67948 19.2365ZM10.5964 11.4685C11.3384 11.0149 12.1784 10.773 13.0348 10.773C14.5369 10.773 15.9267 11.49 16.862 12.7188L16.8629 12.72L17.104 13.0399L17.345 12.72L17.346 12.7188C18.2813 11.4898 19.6754 10.773 21.1732 10.773C22.0292 10.773 22.8695 11.0148 23.6077 11.4688C25.9793 12.9211 26.7739 16.144 25.411 18.648C25.1056 19.2091 24.5487 19.8642 23.8847 20.5366C23.2156 21.2141 22.418 21.9287 21.612 22.6098C19.9996 23.9725 18.3386 25.2139 17.5709 25.7773L17.5692 25.7785C17.2927 25.9788 16.911 25.9788 16.6345 25.7785L16.6333 25.7777C15.8652 25.2161 14.2042 23.9756 12.5917 22.613C11.7857 21.9318 10.9881 21.2169 10.3189 20.5388C9.65494 19.8659 9.09814 19.2102 8.79276 18.648M10.9446 12.0221C8.88824 13.2852 8.1655 16.1186 9.37453 18.3398C9.63423 18.818 10.137 19.4205 10.7921 20.0844C11.4421 20.7431 12.2234 21.4439 13.0213 22.1182C14.6162 23.466 16.2627 24.6957 17.0256 25.2536C17.0693 25.285 17.1338 25.2851 17.1776 25.2539C17.941 24.6937 19.5874 23.4629 21.1824 22.1151C21.9803 21.4407 22.7616 20.7402 23.4117 20.0819C24.0669 19.4185 24.5695 18.817 24.8292 18.3398C26.0384 16.1183 25.3151 13.281 23.2592 12.0222L23.2587 12.0218C22.6223 11.6304 21.9025 11.4245 21.1732 11.4245C19.8966 11.4245 18.6933 12.0339 17.8745 13.1093C17.8743 13.1095 17.8742 13.1098 17.874 13.11L17.104 14.1319L16.3339 13.11C16.3337 13.1097 16.3336 13.1095 16.3334 13.1093C15.5145 12.0338 14.3154 11.4245 13.0348 11.4245C12.3057 11.4245 11.5857 11.6302 10.9446 12.0221ZM10.5964 11.4685L10.5959 11.4689ZM10.5959 11.4689C8.22484 12.9251 7.42971 16.1437 8.79276 18.648Z" fill="white"/><path d="M17.104 26.8235C16.7338 26.8235 16.3804 26.7078 16.0817 26.4888C14.0539 25.0055 9.20751 21.3156 7.9917 19.0802C6.40147 16.1589 7.35645 12.407 10.1162 10.717C11.0081 10.1716 12.0178 9.88235 13.0443 9.88235C14.5798 9.88235 16.0228 10.5022 17.104 11.6054C18.1852 10.5022 19.6281 9.88235 21.1637 9.88235C22.1902 9.88235 23.1999 10.1716 24.0917 10.717C26.8515 12.407 27.8065 16.1589 26.2205 19.0802C25.0046 21.3156 20.1582 25.0055 18.1305 26.4888C17.8276 26.7078 17.4742 26.8235 17.104 26.8235ZM13.0443 11.122C12.2534 11.122 11.4751 11.3451 10.7851 11.7665C8.57647 13.1218 14.5402 9.41131 15.8233 11.7665C16.9508 13.8408 22.908 12 16.8305 25.493C16.9904 25.6087 16.6707 16.4375 16.8305 16.3218C18.3576 15.2021 18.4771 13.5702 19.6046 11.5C20.8877 9.14479 25.6273 13.1177 23.4186 11.7665C22.7329 11.3451 14.8955 21 14.1046 21C12.7205 21 18.4839 11.7831 17.6088 12.9318L16.8305 25.493L16.5991 12.9318C15.7241 11.7831 14.4326 11.122 13.0443 11.122Z" fill="white"/><path d="M35.8416 23V14.299L33.9446 15.447V14.054L35.8416 12.92H37.1086V23H35.8416ZM39.7721 23V12.92H40.9061L44.7141 20.949L48.5011 12.92H49.6491V22.993H48.4661V15.657L45.0431 23H44.3781L40.9551 15.657V23H39.7721Z" fill="white"/></svg>