<svg width="28" height="28" viewBox="0 0 28 28" fill="none" xmlns="http://www.w3.org/2000/svg">
<g filter="url(#filter0_b)">
<rect width="28" height="28" rx="9" fill="url(#paint0_linear)" fill-opacity="0.12"/>
</g>
<path d="M22.3334 12.0583C22.2807 11.9059 22.185 11.772 22.0578 11.6729C21.9306 11.5738 21.7774 11.5137 21.6167 11.5L16.875 10.8083L14.75 6.5C14.6818 6.35911 14.5752 6.24028 14.4426 6.15714C14.31 6.074 14.1566 6.02991 14 6.02991C13.8435 6.02991 13.6901 6.074 13.5574 6.15714C13.4248 6.24028 13.3183 6.35911 13.25 6.5L11.125 10.8L6.38336 11.5C6.22912 11.5219 6.08413 11.5866 5.96481 11.6868C5.8455 11.787 5.75666 11.9186 5.70836 12.0667C5.66414 12.2114 5.66018 12.3654 5.69688 12.5122C5.73358 12.6591 5.80957 12.7931 5.91669 12.9L9.35836 16.2333L8.52502 20.9667C8.49138 21.1237 8.50382 21.2871 8.56084 21.4372C8.61787 21.5873 8.71705 21.7178 8.84646 21.8128C8.97587 21.9079 9.13 21.9636 9.2903 21.9731C9.45059 21.9827 9.61024 21.9457 9.75002 21.8667L14 19.6417L18.25 21.8667C18.367 21.9326 18.4991 21.9671 18.6334 21.9667C18.8099 21.9673 18.982 21.9119 19.125 21.8083C19.2543 21.7157 19.3544 21.588 19.4135 21.4404C19.4725 21.2927 19.4881 21.1312 19.4584 20.975L18.625 16.2417L22.0667 12.9083C22.187 12.8064 22.2759 12.6724 22.3231 12.522C22.3703 12.3715 22.3739 12.2107 22.3334 12.0583ZM17.2084 15.3917C17.1119 15.4853 17.0395 15.601 16.9975 15.7287C16.9554 15.8564 16.9448 15.9923 16.9667 16.125L17.5667 19.625L14.4334 17.9583C14.3116 17.8981 14.1775 17.8668 14.0417 17.8668C13.9058 17.8668 13.7718 17.8981 13.65 17.9583L10.5167 19.625L11.1167 16.125C11.1386 15.9923 11.128 15.8564 11.0859 15.7287C11.0438 15.601 10.9715 15.4853 10.875 15.3917L8.37502 12.8917L11.8834 12.3833C12.0184 12.3646 12.1467 12.3129 12.2571 12.233C12.3675 12.1531 12.4567 12.0474 12.5167 11.925L14 8.75L15.5667 11.9333C15.6267 12.0557 15.7159 12.1615 15.8263 12.2414C15.9367 12.3213 16.065 12.3729 16.2 12.3917L19.7084 12.9L17.2084 15.3917Z" fill="white"/>
<defs>
<filter id="filter0_b" x="-40" y="-40" width="108" height="108" filterUnits="userSpaceOnUse" color-interpolation-filters="sRGB">
<feFlood flood-opacity="0" result="BackgroundImageFix"/>
<feGaussianBlur in="BackgroundImage" stdDeviation="20"/>
<feComposite in2="SourceAlpha" operator="in" result="effect1_backgroundBlur"/>
<feBlend mode="normal" in="SourceGraphic" in2="effect1_backgroundBlur" result="shape"/>
</filter>
<linearGradient id="paint0_linear" x1="0" y1="14" x2="28" y2="14" gradientUnits="userSpaceOnUse">
<stop stop-color="#E8EDFF"/>
<stop offset="1" stop-color="white"/>
</linearGradient>
</defs>
</svg>
