<svg width="24" height="18" viewBox="0 0 24 18" fill="none" xmlns="http://www.w3.org/2000/svg">
<path d="M23.3259 3.05698C23.0534 2.04504 22.2556 1.24717 21.2436 0.97472C19.3949 0.46875 11.9999 0.46875 11.9999 0.46875C11.9999 0.46875 4.60501 0.46875 2.75627 0.955259C1.76379 1.2277 0.946455 2.04504 0.674009 3.05698C0.1875 4.90572 0.1875 8.73941 0.1875 8.73941C0.1875 8.73941 0.1875 12.5926 0.674009 14.4218C0.946455 15.4338 1.74433 16.2317 2.75627 16.5041C4.62447 17.0101 11.9999 17.0101 11.9999 17.0101C11.9999 17.0101 19.3949 17.0101 21.2436 16.5236C22.2556 16.2511 23.0534 15.4532 23.3259 14.4413C23.8124 12.5926 23.8124 8.75887 23.8124 8.75887C23.8124 8.75887 23.8319 4.90572 23.3259 3.05698Z" fill="#FF0000"/>
<path d="M9.6452 12.1461L15.7947 8.60429L9.6452 5.0625V12.1461Z" fill="white"/>
</svg>
